<mxfile host="Electron" agent="Mozilla/5.0 (Windows NT 10.0; Win64; x64) AppleWebKit/537.36 (KHTML, like Gecko) draw.io/24.7.17 Chrome/128.0.6613.36 Electron/32.0.1 Safari/537.36" version="24.7.17">
  <diagram name="Page-1" id="Page-1">
    <mxGraphModel dx="729" dy="346" grid="1" gridSize="10" guides="1" tooltips="1" connect="1" arrows="1" fold="1" page="1" pageScale="1" pageWidth="827" pageHeight="1169" math="0" shadow="0">
      <root>
        <mxCell id="0" />
        <mxCell id="1" parent="0" />
        <UserObject label="&lt;div style=&quot;font-size: 1px&quot;&gt;&lt;p style=&quot;text-align:center;margin-left:0;margin-right:0;margin-top:0px;margin-bottom:0px;text-indent:0;vertical-align:middle;direction:ltr;&quot;&gt;&lt;font style=&quot;font-size:12px;font-family:0;color:#000000;direction:ltr;letter-spacing:0px;line-height:120%;opacity:1&quot;&gt;Admin&lt;/font&gt;&lt;/p&gt;&lt;/div&gt;" tags="Background" id="2">
          <mxCell style="verticalAlign=middle;align=center;overflow=width;vsdxID=1;fillColor=#FFFFFF;gradientColor=none;shape=stencil(rZNBDoIwEEVP06VNOyMga8R7EAFpRCAFFG4vOBioFcPC3fTz/p9mmDIM6iyqEgaibnR5TR4qbjKGRwagiizRqhkqhiHDIC11ctFlW8R0rqKRHKtbeR8TOvIhcsTRBaInRQJ3XsKJ+HOrySBtxyTt9lx6JHVAkutyd5J6sCm0KdzWfmmZJPCt9stLgk2hTa20N6flCGNUYKC5KtZRb3uq9yP1YP0tIf4S7Mt5rBuSzWBHrAe/Y76zQzFvZqrynBZ7+f1zkweJXgGGTw==);strokeColor=#000000;strokeWidth=2;spacingTop=-3;spacingBottom=-3;spacingLeft=-3;spacingRight=-3;points=[];labelBackgroundColor=none;rounded=0;html=1;whiteSpace=wrap;" parent="1" vertex="1">
            <mxGeometry x="13" y="400" width="34" height="46" as="geometry" />
          </mxCell>
        </UserObject>
        <UserObject label="&lt;div style=&quot;font-size: 1px&quot;&gt;&lt;p style=&quot;text-align:center;margin-left:0;margin-right:0;margin-top:0px;margin-bottom:0px;text-indent:0;vertical-align:middle;direction:ltr;&quot;&gt;&lt;font style=&quot;font-size:12px;font-family:0;color:#000000;direction:ltr;letter-spacing:0px;line-height:120%;opacity:1&quot;&gt;Login interface&lt;/font&gt;&lt;/p&gt;&lt;/div&gt;" tags="Background" id="4">
          <mxCell style="verticalAlign=middle;align=center;overflow=width;vsdxID=3;fillColor=#FFFFFF;gradientColor=none;shape=stencil(nZLdDsIgDIWfhksNtHE+wJzvsTjmiAgL+3G+vSN1mRCyLN71lK89UMow75qylQx41zv7kC9V9Q3DCwNQppFO9XPEsGCY19bJu7ODqUi3pSd99LSj7zBRHXBfAvxN8kTySuhtcMSKCP7qg8iO2ZlyE1BO8AWCBIQxhHt8V3xJJIwh8hUJX9i01crsnUw4xJDc6BmCy7N29Pz7onOwfn2ttKbN+T2PV2VO0Zph8QE=);strokeColor=#000000;strokeWidth=2;spacingTop=-3;spacingBottom=-3;spacingLeft=-3;spacingRight=-3;points=[];labelBackgroundColor=none;rounded=0;html=1;whiteSpace=wrap;" parent="1" vertex="1">
            <mxGeometry x="147" y="88" width="50" height="40" as="geometry" />
          </mxCell>
        </UserObject>
        <UserObject label="&lt;div style=&quot;font-size: 1px&quot;&gt;&lt;p style=&quot;text-align:center;margin-left:0;margin-right:0;margin-top:0px;margin-bottom:0px;text-indent:0;vertical-align:middle;direction:ltr;&quot;&gt;&lt;font style=&quot;font-size:12px;font-family:0;color:#000000;direction:ltr;letter-spacing:0px;line-height:120%;opacity:1&quot;&gt;Login&lt;/font&gt;&lt;/p&gt;&lt;/div&gt;" tags="Background" id="5">
          <mxCell style="verticalAlign=middle;align=center;overflow=width;vsdxID=4;fillColor=#FFFFFF;gradientColor=none;shape=stencil(tZLRDoIwDEW/Zo+Qrc3wAxD/g8iQRWRkgOLfu6US3EIIL7713p32Jl0Z5kNT9ooBH0Zr7uqlq7FheGYAumuU1aOrGBYM89pYdbNm6irSfelJXz3M00+YqY/7DuBvUpLkhcjrZAkVIfuVicjS7ETeDOQJvkCwAWEM4ZHYFV+MjeAoVmzE7oa2uju4lXB/MkR3ZmYyIAWk8g9jk3iuK9a/r3Xb0un8vse34iy6Myw+);strokeColor=#000000;strokeWidth=2;spacingTop=-3;spacingBottom=-3;spacingLeft=-3;spacingRight=-3;points=[];labelBackgroundColor=none;rounded=0;html=1;whiteSpace=wrap;" parent="1" vertex="1">
            <mxGeometry x="352" y="88" width="40" height="40" as="geometry" />
          </mxCell>
        </UserObject>
        <UserObject label="&lt;div style=&quot;font-size: 1px&quot;&gt;&lt;p style=&quot;text-align:center;margin-left:0;margin-right:0;margin-top:0px;margin-bottom:0px;text-indent:0;vertical-align:middle;direction:ltr;&quot;&gt;&lt;font style=&quot;font-size:12px;font-family:0;color:#000000;direction:ltr;letter-spacing:0px;line-height:120%;opacity:1&quot;&gt;Personal&lt;br/&gt;&lt;br/&gt;&lt;/font&gt;&lt;font style=&quot;font-size:NaNpx;font-family:0;color:#000000;direction:ltr;letter-spacing:0px;line-height:120%;opacity:1&quot;&gt;information&lt;/font&gt;&lt;/p&gt;&lt;/div&gt;" tags="Background" id="6">
          <mxCell style="verticalAlign=middle;align=center;overflow=width;vsdxID=5;fillColor=#FFFFFF;gradientColor=none;shape=stencil(jZJRDsIgDIZPw6MGaJwHmPMei2NCnLAwNufthVSCErLsrf352h9aCNSTbEdBOJ2cNQ/xUp2TBC6Ec6WlsMr5iEBDoO6NFXdrZt1hPraBDNHTLKHDinU0VHD6xuyE6RXJ22wRZf/sNz2w6lidUVs5aoxGiBcgyCHYY5vwKBSMM1tWsN00HZTeOZWt+cWrFpumdxRhH6Ql9WoYcMe/5/lSvYQfApoP);strokeColor=#000000;strokeWidth=2;spacingTop=-3;spacingBottom=-3;spacingLeft=-3;spacingRight=-3;points=[];labelBackgroundColor=none;rounded=0;html=1;whiteSpace=wrap;" parent="1" vertex="1">
            <mxGeometry x="514" y="88" width="40" height="40" as="geometry" />
          </mxCell>
        </UserObject>
        <UserObject label="&lt;div style=&quot;font-size: 1px&quot;&gt;&lt;p style=&quot;text-align:center;margin-left:0;margin-right:0;margin-top:0px;margin-bottom:0px;text-indent:0;vertical-align:middle;direction:ltr;&quot;&gt;&lt;font style=&quot;font-size:12px;font-family:0;color:#000000;direction:ltr;letter-spacing:0px;line-height:120%;opacity:1&quot;&gt;Order manage page&lt;br/&gt;&lt;/font&gt;&lt;/p&gt;&lt;/div&gt;" tags="Background" id="7">
          <mxCell style="verticalAlign=middle;align=center;overflow=width;vsdxID=6;fillColor=#FFFFFF;gradientColor=none;shape=stencil(nZLdDsIgDIWfhksNtHE+wJzvsTjmiAgL+3G+vSN1mRCyLN71lK89UMow75qylQx41zv7kC9V9Q3DCwNQppFO9XPEsGCY19bJu7ODqUi3pSd99LSj7zBRHXBfAvxN8kTySuhtcMSKCP7qg8iO2ZlyE1BO8AWCBIQxhHt8V3xJJIwh8hUJX9i01crsnUw4xJDc6BmCy7N29Pz7onOwfn2ttKbN+T2PV2VO0Zph8QE=);strokeColor=#000000;strokeWidth=2;spacingTop=-3;spacingBottom=-3;spacingLeft=-3;spacingRight=-3;points=[];labelBackgroundColor=none;rounded=0;html=1;whiteSpace=wrap;" parent="1" vertex="1">
            <mxGeometry x="147" y="173" width="50" height="40" as="geometry" />
          </mxCell>
        </UserObject>
        <UserObject label="&lt;div style=&quot;font-size: 1px&quot;&gt;&lt;p style=&quot;text-align:center;margin-left:0;margin-right:0;margin-top:0px;margin-bottom:0px;text-indent:0;vertical-align:middle;direction:ltr;&quot;&gt;&lt;font style=&quot;font-size:12px;font-family:0;color:#000000;direction:ltr;letter-spacing:0px;line-height:120%;opacity:1&quot;&gt;View order&lt;br/&gt;&lt;/font&gt;&lt;/p&gt;&lt;/div&gt;" tags="Background" id="8">
          <mxCell style="verticalAlign=middle;align=center;overflow=width;vsdxID=7;fillColor=#FFFFFF;gradientColor=none;shape=stencil(tZLRDoIwDEW/Zo+Qrc3wAxD/g8iQRWRkgOLfu6US3EIIL7713p32Jl0Z5kNT9ooBH0Zr7uqlq7FheGYAumuU1aOrGBYM89pYdbNm6irSfelJXz3M00+YqY/7DuBvUpLkhcjrZAkVIfuVicjS7ETeDOQJvkCwAWEM4ZHYFV+MjeAoVmzE7oa2uju4lXB/MkR3ZmYyIAWk8g9jk3iuK9a/r3Xb0un8vse34iy6Myw+);strokeColor=#000000;strokeWidth=2;spacingTop=-3;spacingBottom=-3;spacingLeft=-3;spacingRight=-3;points=[];labelBackgroundColor=none;rounded=0;html=1;whiteSpace=wrap;" parent="1" vertex="1">
            <mxGeometry x="352" y="173" width="40" height="40" as="geometry" />
          </mxCell>
        </UserObject>
        <UserObject label="&lt;div style=&quot;font-size: 1px&quot;&gt;&lt;p style=&quot;text-align:center;margin-left:0;margin-right:0;margin-top:0px;margin-bottom:0px;text-indent:0;vertical-align:middle;direction:ltr;&quot;&gt;&lt;font style=&quot;font-size:12px;font-family:0;color:#000000;direction:ltr;letter-spacing:0px;line-height:120%;opacity:1&quot;&gt;Order information&lt;br/&gt;&lt;/font&gt;&lt;/p&gt;&lt;/div&gt;" tags="Background" id="9">
          <mxCell style="verticalAlign=middle;align=center;overflow=width;vsdxID=8;fillColor=#FFFFFF;gradientColor=none;shape=stencil(jZJRDsIgDIZPw6MGaJwHmPMei2NCnLAwNufthVSCErLsrf352h9aCNSTbEdBOJ2cNQ/xUp2TBC6Ec6WlsMr5iEBDoO6NFXdrZt1hPraBDNHTLKHDinU0VHD6xuyE6RXJ22wRZf/sNz2w6lidUVs5aoxGiBcgyCHYY5vwKBSMM1tWsN00HZTeOZWt+cWrFpumdxRhH6Ql9WoYcMe/5/lSvYQfApoP);strokeColor=#000000;strokeWidth=2;spacingTop=-3;spacingBottom=-3;spacingLeft=-3;spacingRight=-3;points=[];labelBackgroundColor=none;rounded=0;html=1;whiteSpace=wrap;" parent="1" vertex="1">
            <mxGeometry x="514" y="173" width="40" height="40" as="geometry" />
          </mxCell>
        </UserObject>
        <UserObject label="&lt;div style=&quot;font-size: 1px&quot;&gt;&lt;p style=&quot;text-align:center;margin-left:0;margin-right:0;margin-top:0px;margin-bottom:0px;text-indent:0;vertical-align:middle;direction:ltr;&quot;&gt;&lt;font style=&quot;font-size:12px;font-family:0;color:#000000;direction:ltr;letter-spacing:0px;line-height:120%;opacity:1&quot;&gt;Manage rider&lt;br/&gt;&lt;/font&gt;&lt;/p&gt;&lt;/div&gt;" tags="Background" id="10">
          <mxCell style="verticalAlign=middle;align=center;overflow=width;vsdxID=9;fillColor=#FFFFFF;gradientColor=none;shape=stencil(tZLRDoIwDEW/Zo+Qrc3wAxD/g8iQRWRkgOLfu6US3EIIL7713p32Jl0Z5kNT9ooBH0Zr7uqlq7FheGYAumuU1aOrGBYM89pYdbNm6irSfelJXz3M00+YqY/7DuBvUpLkhcjrZAkVIfuVicjS7ETeDOQJvkCwAWEM4ZHYFV+MjeAoVmzE7oa2uju4lXB/MkR3ZmYyIAWk8g9jk3iuK9a/r3Xb0un8vse34iy6Myw+);strokeColor=#000000;strokeWidth=2;spacingTop=-3;spacingBottom=-3;spacingLeft=-3;spacingRight=-3;points=[];labelBackgroundColor=none;rounded=0;html=1;whiteSpace=wrap;" parent="1" vertex="1">
            <mxGeometry x="352" y="343" width="40" height="40" as="geometry" />
          </mxCell>
        </UserObject>
        <UserObject label="&lt;div style=&quot;font-size: 1px&quot;&gt;&lt;p style=&quot;text-align:center;margin-left:0;margin-right:0;margin-top:0px;margin-bottom:0px;text-indent:0;vertical-align:middle;direction:ltr;&quot;&gt;&lt;font style=&quot;font-size:12px;font-family:0;color:#000000;direction:ltr;letter-spacing:0px;line-height:120%;opacity:1&quot;&gt;Rider information&lt;br/&gt;&lt;/font&gt;&lt;/p&gt;&lt;/div&gt;" tags="Background" id="11">
          <mxCell style="verticalAlign=middle;align=center;overflow=width;vsdxID=10;fillColor=#FFFFFF;gradientColor=none;shape=stencil(jZJRDsIgDIZPw6MGaJwHmPMei2NCnLAwNufthVSCErLsrf352h9aCNSTbEdBOJ2cNQ/xUp2TBC6Ec6WlsMr5iEBDoO6NFXdrZt1hPraBDNHTLKHDinU0VHD6xuyE6RXJ22wRZf/sNz2w6lidUVs5aoxGiBcgyCHYY5vwKBSMM1tWsN00HZTeOZWt+cWrFpumdxRhH6Ql9WoYcMe/5/lSvYQfApoP);strokeColor=#000000;strokeWidth=2;spacingTop=-3;spacingBottom=-3;spacingLeft=-3;spacingRight=-3;points=[];labelBackgroundColor=none;rounded=0;html=1;whiteSpace=wrap;" parent="1" vertex="1">
            <mxGeometry x="514" y="343" width="40" height="40" as="geometry" />
          </mxCell>
        </UserObject>
        <UserObject label="&lt;div style=&quot;font-size: 1px&quot;&gt;&lt;p style=&quot;text-align:center;margin-left:0;margin-right:0;margin-top:0px;margin-bottom:0px;text-indent:0;vertical-align:middle;direction:ltr;&quot;&gt;&lt;font style=&quot;font-size:12px;font-family:0;color:#000000;direction:ltr;letter-spacing:0px;line-height:120%;opacity:1&quot;&gt;Manage user&lt;br/&gt;&lt;/font&gt;&lt;/p&gt;&lt;/div&gt;" tags="Background" id="12">
          <mxCell style="verticalAlign=middle;align=center;overflow=width;vsdxID=11;fillColor=#FFFFFF;gradientColor=none;shape=stencil(tZLRDoIwDEW/Zo+Qrc3wAxD/g8iQRWRkgOLfu6US3EIIL7713p32Jl0Z5kNT9ooBH0Zr7uqlq7FheGYAumuU1aOrGBYM89pYdbNm6irSfelJXz3M00+YqY/7DuBvUpLkhcjrZAkVIfuVicjS7ETeDOQJvkCwAWEM4ZHYFV+MjeAoVmzE7oa2uju4lXB/MkR3ZmYyIAWk8g9jk3iuK9a/r3Xb0un8vse34iy6Myw+);strokeColor=#000000;strokeWidth=2;spacingTop=-3;spacingBottom=-3;spacingLeft=-3;spacingRight=-3;points=[];labelBackgroundColor=none;rounded=0;html=1;whiteSpace=wrap;" parent="1" vertex="1">
            <mxGeometry x="352" y="428" width="40" height="40" as="geometry" />
          </mxCell>
        </UserObject>
        <UserObject label="&lt;div style=&quot;font-size: 1px&quot;&gt;&lt;p style=&quot;text-align:center;margin-left:0;margin-right:0;margin-top:0px;margin-bottom:0px;text-indent:0;vertical-align:middle;direction:ltr;&quot;&gt;&lt;font style=&quot;font-size:12px;font-family:0;color:#000000;direction:ltr;letter-spacing:0px;line-height:120%;opacity:1&quot;&gt;Administrative area&lt;br/&gt;&lt;/font&gt;&lt;/p&gt;&lt;/div&gt;" tags="Background" id="13">
          <mxCell style="verticalAlign=middle;align=center;overflow=width;vsdxID=12;fillColor=#FFFFFF;gradientColor=none;shape=stencil(tZLRDoIwDEW/Zo+Qrc3wAxD/g8iQRWRkgOLfu6US3EIIL7713p32Jl0Z5kNT9ooBH0Zr7uqlq7FheGYAumuU1aOrGBYM89pYdbNm6irSfelJXz3M00+YqY/7DuBvUpLkhcjrZAkVIfuVicjS7ETeDOQJvkCwAWEM4ZHYFV+MjeAoVmzE7oa2uju4lXB/MkR3ZmYyIAWk8g9jk3iuK9a/r3Xb0un8vse34iy6Myw+);strokeColor=#000000;strokeWidth=2;spacingTop=-3;spacingBottom=-3;spacingLeft=-3;spacingRight=-3;points=[];labelBackgroundColor=none;rounded=0;html=1;whiteSpace=wrap;" parent="1" vertex="1">
            <mxGeometry x="352" y="513" width="40" height="40" as="geometry" />
          </mxCell>
        </UserObject>
        <UserObject label="&lt;div style=&quot;font-size: 1px&quot;&gt;&lt;p style=&quot;text-align:center;margin-left:0;margin-right:0;margin-top:0px;margin-bottom:0px;text-indent:0;vertical-align:middle;direction:ltr;&quot;&gt;&lt;font style=&quot;font-size:12px;font-family:0;color:#000000;direction:ltr;letter-spacing:0px;line-height:120%;opacity:1&quot;&gt;Manage merchants&lt;br/&gt;&lt;/font&gt;&lt;/p&gt;&lt;/div&gt;" tags="Background" id="14">
          <mxCell style="verticalAlign=middle;align=center;overflow=width;vsdxID=13;fillColor=#FFFFFF;gradientColor=none;shape=stencil(tZLRDoIwDEW/Zo+Qrc3wAxD/g8iQRWRkgOLfu6US3EIIL7713p32Jl0Z5kNT9ooBH0Zr7uqlq7FheGYAumuU1aOrGBYM89pYdbNm6irSfelJXz3M00+YqY/7DuBvUpLkhcjrZAkVIfuVicjS7ETeDOQJvkCwAWEM4ZHYFV+MjeAoVmzE7oa2uju4lXB/MkR3ZmYyIAWk8g9jk3iuK9a/r3Xb0un8vse34iy6Myw+);strokeColor=#000000;strokeWidth=2;spacingTop=-3;spacingBottom=-3;spacingLeft=-3;spacingRight=-3;points=[];labelBackgroundColor=none;rounded=0;html=1;whiteSpace=wrap;" parent="1" vertex="1">
            <mxGeometry x="352" y="258" width="40" height="40" as="geometry" />
          </mxCell>
        </UserObject>
        <UserObject label="&lt;div style=&quot;font-size: 1px&quot;&gt;&lt;p style=&quot;text-align:center;margin-left:0;margin-right:0;margin-top:0px;margin-bottom:0px;text-indent:0;vertical-align:middle;direction:ltr;&quot;&gt;&lt;font style=&quot;font-size:12px;font-family:0;color:#000000;direction:ltr;letter-spacing:0px;line-height:120%;opacity:1&quot;&gt;Manage review&lt;br/&gt;&lt;/font&gt;&lt;/p&gt;&lt;/div&gt;" tags="Background" id="15">
          <mxCell style="verticalAlign=middle;align=center;overflow=width;vsdxID=14;fillColor=#FFFFFF;gradientColor=none;shape=stencil(tZLRDoIwDEW/Zo+Qrc3wAxD/g8iQRWRkgOLfu6US3EIIL7713p32Jl0Z5kNT9ooBH0Zr7uqlq7FheGYAumuU1aOrGBYM89pYdbNm6irSfelJXz3M00+YqY/7DuBvUpLkhcjrZAkVIfuVicjS7ETeDOQJvkCwAWEM4ZHYFV+MjeAoVmzE7oa2uju4lXB/MkR3ZmYyIAWk8g9jk3iuK9a/r3Xb0un8vse34iy6Myw+);strokeColor=#000000;strokeWidth=2;spacingTop=-3;spacingBottom=-3;spacingLeft=-3;spacingRight=-3;points=[];labelBackgroundColor=none;rounded=0;html=1;whiteSpace=wrap;" parent="1" vertex="1">
            <mxGeometry x="352" y="598" width="40" height="40" as="geometry" />
          </mxCell>
        </UserObject>
        <UserObject label="&lt;div style=&quot;font-size: 1px&quot;&gt;&lt;p style=&quot;text-align:center;margin-left:0;margin-right:0;margin-top:0px;margin-bottom:0px;text-indent:0;vertical-align:middle;direction:ltr;&quot;&gt;&lt;font style=&quot;font-size:12px;font-family:0;color:#000000;direction:ltr;letter-spacing:0px;line-height:120%;opacity:1&quot;&gt;Merchant management interface&lt;br/&gt;&lt;/font&gt;&lt;/p&gt;&lt;/div&gt;" tags="Background" id="16">
          <mxCell style="verticalAlign=middle;align=center;overflow=width;vsdxID=15;fillColor=#FFFFFF;gradientColor=none;shape=stencil(nZLdDsIgDIWfhksNtHE+wJzvsTjmiAgL+3G+vSN1mRCyLN71lK89UMow75qylQx41zv7kC9V9Q3DCwNQppFO9XPEsGCY19bJu7ODqUi3pSd99LSj7zBRHXBfAvxN8kTySuhtcMSKCP7qg8iO2ZlyE1BO8AWCBIQxhHt8V3xJJIwh8hUJX9i01crsnUw4xJDc6BmCy7N29Pz7onOwfn2ttKbN+T2PV2VO0Zph8QE=);strokeColor=#000000;strokeWidth=2;spacingTop=-3;spacingBottom=-3;spacingLeft=-3;spacingRight=-3;points=[];labelBackgroundColor=none;rounded=0;html=1;whiteSpace=wrap;" parent="1" vertex="1">
            <mxGeometry x="147" y="258" width="50" height="40" as="geometry" />
          </mxCell>
        </UserObject>
        <UserObject label="&lt;div style=&quot;font-size: 1px&quot;&gt;&lt;p style=&quot;text-align:center;margin-left:0;margin-right:0;margin-top:0px;margin-bottom:0px;text-indent:0;vertical-align:middle;direction:ltr;&quot;&gt;&lt;font style=&quot;font-size:12px;font-family:0;color:#000000;direction:ltr;letter-spacing:0px;line-height:120%;opacity:1&quot;&gt;Rider management interface&lt;br/&gt;&lt;/font&gt;&lt;/p&gt;&lt;/div&gt;" tags="Background" id="17">
          <mxCell style="verticalAlign=middle;align=center;overflow=width;vsdxID=16;fillColor=#FFFFFF;gradientColor=none;shape=stencil(nZLdDsIgDIWfhksNtHE+wJzvsTjmiAgL+3G+vSN1mRCyLN71lK89UMow75qylQx41zv7kC9V9Q3DCwNQppFO9XPEsGCY19bJu7ODqUi3pSd99LSj7zBRHXBfAvxN8kTySuhtcMSKCP7qg8iO2ZlyE1BO8AWCBIQxhHt8V3xJJIwh8hUJX9i01crsnUw4xJDc6BmCy7N29Pz7onOwfn2ttKbN+T2PV2VO0Zph8QE=);strokeColor=#000000;strokeWidth=2;spacingTop=-3;spacingBottom=-3;spacingLeft=-3;spacingRight=-3;points=[];labelBackgroundColor=none;rounded=0;html=1;whiteSpace=wrap;" parent="1" vertex="1">
            <mxGeometry x="147" y="343" width="50" height="40" as="geometry" />
          </mxCell>
        </UserObject>
        <UserObject label="&lt;div style=&quot;font-size: 1px&quot;&gt;&lt;p style=&quot;text-align:center;margin-left:0;margin-right:0;margin-top:0px;margin-bottom:0px;text-indent:0;vertical-align:middle;direction:ltr;&quot;&gt;&lt;font style=&quot;font-size:12px;font-family:0;color:#000000;direction:ltr;letter-spacing:0px;line-height:120%;opacity:1&quot;&gt;User management interface&lt;br/&gt;&lt;/font&gt;&lt;/p&gt;&lt;/div&gt;" tags="Background" id="18">
          <mxCell style="verticalAlign=middle;align=center;overflow=width;vsdxID=17;fillColor=#FFFFFF;gradientColor=none;shape=stencil(nZLdDsIgDIWfhksNtHE+wJzvsTjmiAgL+3G+vSN1mRCyLN71lK89UMow75qylQx41zv7kC9V9Q3DCwNQppFO9XPEsGCY19bJu7ODqUi3pSd99LSj7zBRHXBfAvxN8kTySuhtcMSKCP7qg8iO2ZlyE1BO8AWCBIQxhHt8V3xJJIwh8hUJX9i01crsnUw4xJDc6BmCy7N29Pz7onOwfn2ttKbN+T2PV2VO0Zph8QE=);strokeColor=#000000;strokeWidth=2;spacingTop=-3;spacingBottom=-3;spacingLeft=-3;spacingRight=-3;points=[];labelBackgroundColor=none;rounded=0;html=1;whiteSpace=wrap;" parent="1" vertex="1">
            <mxGeometry x="147" y="428" width="50" height="40" as="geometry" />
          </mxCell>
        </UserObject>
        <UserObject label="&lt;div style=&quot;font-size: 1px&quot;&gt;&lt;p style=&quot;text-align:center;margin-left:0;margin-right:0;margin-top:0px;margin-bottom:0px;text-indent:0;vertical-align:middle;direction:ltr;&quot;&gt;&lt;font style=&quot;font-size:12px;font-family:0;color:#000000;direction:ltr;letter-spacing:0px;line-height:120%;opacity:1&quot;&gt;Area management interface&lt;br/&gt;&lt;/font&gt;&lt;/p&gt;&lt;/div&gt;" tags="Background" id="19">
          <mxCell style="verticalAlign=middle;align=center;overflow=width;vsdxID=18;fillColor=#FFFFFF;gradientColor=none;shape=stencil(nZLdDsIgDIWfhksNtHE+wJzvsTjmiAgL+3G+vSN1mRCyLN71lK89UMow75qylQx41zv7kC9V9Q3DCwNQppFO9XPEsGCY19bJu7ODqUi3pSd99LSj7zBRHXBfAvxN8kTySuhtcMSKCP7qg8iO2ZlyE1BO8AWCBIQxhHt8V3xJJIwh8hUJX9i01crsnUw4xJDc6BmCy7N29Pz7onOwfn2ttKbN+T2PV2VO0Zph8QE=);strokeColor=#000000;strokeWidth=2;spacingTop=-3;spacingBottom=-3;spacingLeft=-3;spacingRight=-3;points=[];labelBackgroundColor=none;rounded=0;html=1;whiteSpace=wrap;" parent="1" vertex="1">
            <mxGeometry x="147" y="513" width="50" height="40" as="geometry" />
          </mxCell>
        </UserObject>
        <UserObject label="&lt;div style=&quot;font-size: 1px&quot;&gt;&lt;p style=&quot;text-align:center;margin-left:0;margin-right:0;margin-top:0px;margin-bottom:0px;text-indent:0;vertical-align:middle;direction:ltr;&quot;&gt;&lt;font style=&quot;font-size:12px;font-family:0;color:#000000;direction:ltr;letter-spacing:0px;line-height:120%;opacity:1&quot;&gt;Comment management interface&lt;br/&gt;&lt;/font&gt;&lt;/p&gt;&lt;/div&gt;" tags="Background" id="20">
          <mxCell style="verticalAlign=middle;align=center;overflow=width;vsdxID=19;fillColor=#FFFFFF;gradientColor=none;shape=stencil(nZLdDsIgDIWfhksNtHE+wJzvsTjmiAgL+3G+vSN1mRCyLN71lK89UMow75qylQx41zv7kC9V9Q3DCwNQppFO9XPEsGCY19bJu7ODqUi3pSd99LSj7zBRHXBfAvxN8kTySuhtcMSKCP7qg8iO2ZlyE1BO8AWCBIQxhHt8V3xJJIwh8hUJX9i01crsnUw4xJDc6BmCy7N29Pz7onOwfn2ttKbN+T2PV2VO0Zph8QE=);strokeColor=#000000;strokeWidth=2;spacingTop=-3;spacingBottom=-3;spacingLeft=-3;spacingRight=-3;points=[];labelBackgroundColor=none;rounded=0;html=1;whiteSpace=wrap;" parent="1" vertex="1">
            <mxGeometry x="147" y="598" width="50" height="40" as="geometry" />
          </mxCell>
        </UserObject>
        <UserObject label="&lt;div style=&quot;font-size: 1px&quot;&gt;&lt;p style=&quot;text-align:center;margin-left:0;margin-right:0;margin-top:0px;margin-bottom:0px;text-indent:0;vertical-align:middle;direction:ltr;&quot;&gt;&lt;font style=&quot;font-size:12px;font-family:0;color:#000000;direction:ltr;letter-spacing:0px;line-height:120%;opacity:1&quot;&gt;Merchant information&lt;br/&gt;&lt;/font&gt;&lt;/p&gt;&lt;/div&gt;" tags="Background" id="21">
          <mxCell style="verticalAlign=middle;align=center;overflow=width;vsdxID=20;fillColor=#FFFFFF;gradientColor=none;shape=stencil(jZJRDsIgDIZPw6MGaJwHmPMei2NCnLAwNufthVSCErLsrf352h9aCNSTbEdBOJ2cNQ/xUp2TBC6Ec6WlsMr5iEBDoO6NFXdrZt1hPraBDNHTLKHDinU0VHD6xuyE6RXJ22wRZf/sNz2w6lidUVs5aoxGiBcgyCHYY5vwKBSMM1tWsN00HZTeOZWt+cWrFpumdxRhH6Ql9WoYcMe/5/lSvYQfApoP);strokeColor=#000000;strokeWidth=2;spacingTop=-3;spacingBottom=-3;spacingLeft=-3;spacingRight=-3;points=[];labelBackgroundColor=none;rounded=0;html=1;whiteSpace=wrap;" parent="1" vertex="1">
            <mxGeometry x="514" y="258" width="40" height="40" as="geometry" />
          </mxCell>
        </UserObject>
        <UserObject label="&lt;div style=&quot;font-size: 1px&quot;&gt;&lt;p style=&quot;text-align:center;margin-left:0;margin-right:0;margin-top:0px;margin-bottom:0px;text-indent:0;vertical-align:middle;direction:ltr;&quot;&gt;&lt;font style=&quot;font-size:12px;font-family:0;color:#000000;direction:ltr;letter-spacing:0px;line-height:120%;opacity:1&quot;&gt;User information&lt;br/&gt;&lt;/font&gt;&lt;/p&gt;&lt;/div&gt;" tags="Background" id="22">
          <mxCell style="verticalAlign=middle;align=center;overflow=width;vsdxID=21;fillColor=#FFFFFF;gradientColor=none;shape=stencil(jZJRDsIgDIZPw6MGaJwHmPMei2NCnLAwNufthVSCErLsrf352h9aCNSTbEdBOJ2cNQ/xUp2TBC6Ec6WlsMr5iEBDoO6NFXdrZt1hPraBDNHTLKHDinU0VHD6xuyE6RXJ22wRZf/sNz2w6lidUVs5aoxGiBcgyCHYY5vwKBSMM1tWsN00HZTeOZWt+cWrFpumdxRhH6Ql9WoYcMe/5/lSvYQfApoP);strokeColor=#000000;strokeWidth=2;spacingTop=-3;spacingBottom=-3;spacingLeft=-3;spacingRight=-3;points=[];labelBackgroundColor=none;rounded=0;html=1;whiteSpace=wrap;" parent="1" vertex="1">
            <mxGeometry x="514" y="428" width="40" height="40" as="geometry" />
          </mxCell>
        </UserObject>
        <UserObject label="&lt;div style=&quot;font-size: 1px&quot;&gt;&lt;p style=&quot;text-align:center;margin-left:0;margin-right:0;margin-top:0px;margin-bottom:0px;text-indent:0;vertical-align:middle;direction:ltr;&quot;&gt;&lt;font style=&quot;font-size:12px;font-family:0;color:#000000;direction:ltr;letter-spacing:0px;line-height:120%;opacity:1&quot;&gt;Area information&lt;br/&gt;&lt;/font&gt;&lt;/p&gt;&lt;/div&gt;" tags="Background" id="23">
          <mxCell style="verticalAlign=middle;align=center;overflow=width;vsdxID=22;fillColor=#FFFFFF;gradientColor=none;shape=stencil(jZJRDsIgDIZPw6MGaJwHmPMei2NCnLAwNufthVSCErLsrf352h9aCNSTbEdBOJ2cNQ/xUp2TBC6Ec6WlsMr5iEBDoO6NFXdrZt1hPraBDNHTLKHDinU0VHD6xuyE6RXJ22wRZf/sNz2w6lidUVs5aoxGiBcgyCHYY5vwKBSMM1tWsN00HZTeOZWt+cWrFpumdxRhH6Ql9WoYcMe/5/lSvYQfApoP);strokeColor=#000000;strokeWidth=2;spacingTop=-3;spacingBottom=-3;spacingLeft=-3;spacingRight=-3;points=[];labelBackgroundColor=none;rounded=0;html=1;whiteSpace=wrap;" parent="1" vertex="1">
            <mxGeometry x="514" y="513" width="40" height="40" as="geometry" />
          </mxCell>
        </UserObject>
        <UserObject label="&lt;div style=&quot;font-size: 1px&quot;&gt;&lt;p style=&quot;text-align:center;margin-left:0;margin-right:0;margin-top:0px;margin-bottom:0px;text-indent:0;vertical-align:middle;direction:ltr;&quot;&gt;&lt;font style=&quot;font-size:12px;font-family:0;color:#000000;direction:ltr;letter-spacing:0px;line-height:120%;opacity:1&quot;&gt;Comment details&lt;br/&gt;&lt;/font&gt;&lt;/p&gt;&lt;/div&gt;" tags="Background" id="24">
          <mxCell style="verticalAlign=middle;align=center;overflow=width;vsdxID=23;fillColor=#FFFFFF;gradientColor=none;shape=stencil(jZJRDsIgDIZPw6MGaJwHmPMei2NCnLAwNufthVSCErLsrf352h9aCNSTbEdBOJ2cNQ/xUp2TBC6Ec6WlsMr5iEBDoO6NFXdrZt1hPraBDNHTLKHDinU0VHD6xuyE6RXJ22wRZf/sNz2w6lidUVs5aoxGiBcgyCHYY5vwKBSMM1tWsN00HZTeOZWt+cWrFpumdxRhH6Ql9WoYcMe/5/lSvYQfApoP);strokeColor=#000000;strokeWidth=2;spacingTop=-3;spacingBottom=-3;spacingLeft=-3;spacingRight=-3;points=[];labelBackgroundColor=none;rounded=0;html=1;whiteSpace=wrap;" parent="1" vertex="1">
            <mxGeometry x="514" y="598" width="40" height="40" as="geometry" />
          </mxCell>
        </UserObject>
        <UserObject label="" tags="Background" id="25">
          <mxCell style="vsdxID=24;edgeStyle=none;startArrow=none;endArrow=block;startSize=5;endSize=5;strokeWidth=2;spacingTop=0;spacingBottom=0;spacingLeft=0;spacingRight=0;verticalAlign=middle;html=1;labelBackgroundColor=#ffffff;rounded=0;exitX=0;exitY=0.5;exitDx=0;exitDy=0;exitPerimeter=0;entryX=1;entryY=0.5;entryDx=0;entryDy=0;entryPerimeter=0;" parent="1" source="10" target="17" edge="1">
            <mxGeometry relative="1" as="geometry">
              <mxPoint x="78" y="102" as="offset" />
              <Array as="points">
                <mxPoint x="274.5" y="363" />
                <mxPoint x="274.5" y="363" />
              </Array>
            </mxGeometry>
          </mxCell>
        </UserObject>
        <UserObject label="" tags="Background" id="26">
          <mxCell style="vsdxID=25;edgeStyle=none;startArrow=none;endArrow=block;startSize=5;endSize=5;strokeWidth=2;spacingTop=0;spacingBottom=0;spacingLeft=0;spacingRight=0;verticalAlign=middle;html=1;labelBackgroundColor=#ffffff;rounded=0;exitX=0;exitY=0.5;exitDx=0;exitDy=0;exitPerimeter=0;entryX=1;entryY=0.5;entryDx=0;entryDy=0;entryPerimeter=0;" parent="1" source="13" target="19" edge="1">
            <mxGeometry relative="1" as="geometry">
              <mxPoint x="78" y="102" as="offset" />
              <Array as="points">
                <mxPoint x="274.5" y="533" />
                <mxPoint x="274.5" y="533" />
              </Array>
            </mxGeometry>
          </mxCell>
        </UserObject>
        <UserObject label="" tags="Background" id="27">
          <mxCell style="vsdxID=26;edgeStyle=none;startArrow=none;endArrow=block;startSize=5;endSize=5;strokeWidth=2;spacingTop=0;spacingBottom=0;spacingLeft=0;spacingRight=0;verticalAlign=middle;html=1;labelBackgroundColor=#ffffff;rounded=0;exitX=0;exitY=0.5;exitDx=0;exitDy=0;exitPerimeter=0;entryX=1;entryY=0.5;entryDx=0;entryDy=0;entryPerimeter=0;" parent="1" source="8" target="7" edge="1">
            <mxGeometry relative="1" as="geometry">
              <mxPoint x="78" y="102" as="offset" />
              <Array as="points">
                <mxPoint x="274.5" y="193" />
                <mxPoint x="274.5" y="193" />
              </Array>
            </mxGeometry>
          </mxCell>
        </UserObject>
        <UserObject label="" tags="Background" id="28">
          <mxCell style="vsdxID=27;edgeStyle=none;startArrow=none;endArrow=block;startSize=5;endSize=5;strokeWidth=2;spacingTop=0;spacingBottom=0;spacingLeft=0;spacingRight=0;verticalAlign=middle;html=1;labelBackgroundColor=#ffffff;rounded=0;exitX=1;exitY=0.5;exitDx=0;exitDy=0;exitPerimeter=0;entryX=0;entryY=0.5;entryDx=0;entryDy=0;entryPerimeter=0;" parent="1" source="2" target="7" edge="1">
            <mxGeometry relative="1" as="geometry">
              <mxPoint x="-50" y="-10" as="offset" />
              <Array as="points">
                <mxPoint x="96.72" y="416" />
                <mxPoint x="96.72" y="192.22" />
              </Array>
            </mxGeometry>
          </mxCell>
        </UserObject>
        <UserObject label="" tags="Background" id="29">
          <mxCell style="vsdxID=28;edgeStyle=none;startArrow=none;endArrow=block;startSize=5;endSize=5;strokeWidth=2;spacingTop=0;spacingBottom=0;spacingLeft=0;spacingRight=0;verticalAlign=middle;html=1;labelBackgroundColor=#ffffff;rounded=0;exitX=1;exitY=0.5;exitDx=0;exitDy=0;exitPerimeter=0;entryX=0;entryY=0.5;entryDx=0;entryDy=0;entryPerimeter=0;" parent="1" source="19" target="13" edge="1">
            <mxGeometry relative="1" as="geometry">
              <mxPoint x="-78" y="102" as="offset" />
              <Array as="points">
                <mxPoint x="274.5" y="533" />
                <mxPoint x="274.5" y="533" />
              </Array>
            </mxGeometry>
          </mxCell>
        </UserObject>
        <UserObject label="" tags="Background" id="30">
          <mxCell style="vsdxID=29;edgeStyle=none;startArrow=none;endArrow=block;startSize=5;endSize=5;strokeWidth=2;spacingTop=0;spacingBottom=0;spacingLeft=0;spacingRight=0;verticalAlign=middle;html=1;labelBackgroundColor=#ffffff;rounded=0;exitX=0;exitY=0.5;exitDx=0;exitDy=0;exitPerimeter=0;entryX=1;entryY=0.5;entryDx=0;entryDy=0;entryPerimeter=0;" parent="1" source="6" target="5" edge="1">
            <mxGeometry relative="1" as="geometry">
              <mxPoint x="61" y="102" as="offset" />
              <Array as="points">
                <mxPoint x="453" y="108" />
                <mxPoint x="453" y="108" />
              </Array>
            </mxGeometry>
          </mxCell>
        </UserObject>
        <UserObject label="" tags="Background" id="31">
          <mxCell style="vsdxID=30;edgeStyle=none;startArrow=none;endArrow=block;startSize=5;endSize=5;strokeWidth=2;spacingTop=0;spacingBottom=0;spacingLeft=0;spacingRight=0;verticalAlign=middle;html=1;labelBackgroundColor=#ffffff;rounded=0;exitX=1;exitY=0.5;exitDx=0;exitDy=0;exitPerimeter=0;entryX=0;entryY=0.5;entryDx=0;entryDy=0;entryPerimeter=0;" parent="1" source="7" target="8" edge="1">
            <mxGeometry relative="1" as="geometry">
              <mxPoint x="-78" y="102" as="offset" />
              <Array as="points">
                <mxPoint x="274.5" y="193" />
                <mxPoint x="274.5" y="193" />
              </Array>
            </mxGeometry>
          </mxCell>
        </UserObject>
        <UserObject label="" tags="Background" id="32">
          <mxCell style="vsdxID=31;edgeStyle=none;startArrow=none;endArrow=block;startSize=5;endSize=5;strokeWidth=2;spacingTop=0;spacingBottom=0;spacingLeft=0;spacingRight=0;verticalAlign=middle;html=1;labelBackgroundColor=#ffffff;rounded=0;exitX=1;exitY=0.5;exitDx=0;exitDy=0;exitPerimeter=0;entryX=0;entryY=0.5;entryDx=0;entryDy=0;entryPerimeter=0;" parent="1" source="4" target="5" edge="1">
            <mxGeometry relative="1" as="geometry">
              <mxPoint x="-78" y="102" as="offset" />
              <Array as="points">
                <mxPoint x="274.5" y="108" />
                <mxPoint x="274.5" y="108" />
              </Array>
            </mxGeometry>
          </mxCell>
        </UserObject>
        <UserObject label="" tags="Background" id="33">
          <mxCell style="vsdxID=32;edgeStyle=none;startArrow=none;endArrow=block;startSize=5;endSize=5;strokeWidth=2;spacingTop=0;spacingBottom=0;spacingLeft=0;spacingRight=0;verticalAlign=middle;html=1;labelBackgroundColor=#ffffff;rounded=0;exitX=0;exitY=0.5;exitDx=0;exitDy=0;exitPerimeter=0;entryX=1;entryY=0.5;entryDx=0;entryDy=0;entryPerimeter=0;" parent="1" source="11" target="10" edge="1">
            <mxGeometry relative="1" as="geometry">
              <mxPoint x="61" y="102" as="offset" />
              <Array as="points">
                <mxPoint x="453" y="363" />
                <mxPoint x="453" y="363" />
              </Array>
            </mxGeometry>
          </mxCell>
        </UserObject>
        <UserObject label="" tags="Background" id="34">
          <mxCell style="vsdxID=33;edgeStyle=none;startArrow=none;endArrow=block;startSize=5;endSize=5;strokeWidth=2;spacingTop=0;spacingBottom=0;spacingLeft=0;spacingRight=0;verticalAlign=middle;html=1;labelBackgroundColor=#ffffff;rounded=0;exitX=1;exitY=0.5;exitDx=0;exitDy=0;exitPerimeter=0;entryX=0;entryY=0.5;entryDx=0;entryDy=0;entryPerimeter=0;" parent="1" source="5" target="6" edge="1">
            <mxGeometry relative="1" as="geometry">
              <mxPoint x="-61" y="102" as="offset" />
              <Array as="points">
                <mxPoint x="453" y="108" />
                <mxPoint x="453" y="108" />
              </Array>
            </mxGeometry>
          </mxCell>
        </UserObject>
        <UserObject label="" tags="Background" id="35">
          <mxCell style="vsdxID=34;edgeStyle=none;startArrow=none;endArrow=block;startSize=5;endSize=5;strokeWidth=2;spacingTop=0;spacingBottom=0;spacingLeft=0;spacingRight=0;verticalAlign=middle;html=1;labelBackgroundColor=#ffffff;rounded=0;exitX=1;exitY=0.5;exitDx=0;exitDy=0;exitPerimeter=0;entryX=0;entryY=0.5;entryDx=0;entryDy=0;entryPerimeter=0;" parent="1" source="2" target="4" edge="1">
            <mxGeometry relative="1" as="geometry">
              <mxPoint x="-50" y="-53" as="offset" />
              <Array as="points">
                <mxPoint x="96.72" y="416" />
                <mxPoint x="96.72" y="107.22" />
              </Array>
            </mxGeometry>
          </mxCell>
        </UserObject>
        <UserObject label="" tags="Background" id="36">
          <mxCell style="vsdxID=35;edgeStyle=none;startArrow=none;endArrow=block;startSize=5;endSize=5;strokeWidth=2;spacingTop=0;spacingBottom=0;spacingLeft=0;spacingRight=0;verticalAlign=middle;html=1;labelBackgroundColor=#ffffff;rounded=0;exitX=1;exitY=0.5;exitDx=0;exitDy=0;exitPerimeter=0;entryX=0;entryY=0.5;entryDx=0;entryDy=0;entryPerimeter=0;" parent="1" source="17" target="10" edge="1">
            <mxGeometry relative="1" as="geometry">
              <mxPoint x="-78" y="102" as="offset" />
              <Array as="points">
                <mxPoint x="274.5" y="363" />
                <mxPoint x="274.5" y="363" />
              </Array>
            </mxGeometry>
          </mxCell>
        </UserObject>
        <UserObject label="" tags="Background" id="37">
          <mxCell style="vsdxID=36;edgeStyle=none;startArrow=none;endArrow=block;startSize=5;endSize=5;strokeWidth=2;spacingTop=0;spacingBottom=0;spacingLeft=0;spacingRight=0;verticalAlign=middle;html=1;labelBackgroundColor=#ffffff;rounded=0;exitX=1;exitY=0.5;exitDx=0;exitDy=0;exitPerimeter=0;entryX=0;entryY=0.5;entryDx=0;entryDy=0;entryPerimeter=0;" parent="1" source="2" target="17" edge="1">
            <mxGeometry relative="1" as="geometry">
              <mxPoint x="-50" y="75" as="offset" />
              <Array as="points">
                <mxPoint x="96.72" y="416" />
                <mxPoint x="96.72" y="362.22" />
              </Array>
            </mxGeometry>
          </mxCell>
        </UserObject>
        <UserObject label="" tags="Background" id="38">
          <mxCell style="vsdxID=37;edgeStyle=none;startArrow=none;endArrow=block;startSize=5;endSize=5;strokeWidth=2;spacingTop=0;spacingBottom=0;spacingLeft=0;spacingRight=0;verticalAlign=middle;html=1;labelBackgroundColor=#ffffff;rounded=0;exitX=1;exitY=0.5;exitDx=0;exitDy=0;exitPerimeter=0;entryX=0;entryY=0.5;entryDx=0;entryDy=0;entryPerimeter=0;" parent="1" source="13" target="23" edge="1">
            <mxGeometry relative="1" as="geometry">
              <mxPoint x="-61" y="102" as="offset" />
              <Array as="points">
                <mxPoint x="453" y="533" />
                <mxPoint x="453" y="533" />
              </Array>
            </mxGeometry>
          </mxCell>
        </UserObject>
        <UserObject label="" tags="Background" id="39">
          <mxCell style="vsdxID=38;edgeStyle=none;startArrow=none;endArrow=block;startSize=5;endSize=5;strokeWidth=2;spacingTop=0;spacingBottom=0;spacingLeft=0;spacingRight=0;verticalAlign=middle;html=1;labelBackgroundColor=#ffffff;rounded=0;exitX=1;exitY=0.5;exitDx=0;exitDy=0;exitPerimeter=0;entryX=0;entryY=0.5;entryDx=0;entryDy=0;entryPerimeter=0;" parent="1" source="2" target="19" edge="1">
            <mxGeometry relative="1" as="geometry">
              <mxPoint x="-50" y="159" as="offset" />
              <Array as="points">
                <mxPoint x="96.72" y="416" />
                <mxPoint x="96.72" y="532.22" />
              </Array>
            </mxGeometry>
          </mxCell>
        </UserObject>
        <UserObject label="" tags="Background" id="40">
          <mxCell style="vsdxID=39;edgeStyle=none;startArrow=none;endArrow=block;startSize=5;endSize=5;strokeWidth=2;spacingTop=0;spacingBottom=0;spacingLeft=0;spacingRight=0;verticalAlign=middle;html=1;labelBackgroundColor=#ffffff;rounded=0;exitX=1;exitY=0.5;exitDx=0;exitDy=0;exitPerimeter=0;entryX=0;entryY=0.5;entryDx=0;entryDy=0;entryPerimeter=0;" parent="1" source="2" target="19" edge="1">
            <mxGeometry relative="1" as="geometry">
              <mxPoint x="-50" y="159" as="offset" />
              <Array as="points">
                <mxPoint x="96.72" y="416" />
                <mxPoint x="96.72" y="532.22" />
              </Array>
            </mxGeometry>
          </mxCell>
        </UserObject>
        <UserObject label="" tags="Background" id="41">
          <mxCell style="vsdxID=40;edgeStyle=none;startArrow=none;endArrow=block;startSize=5;endSize=5;strokeWidth=2;spacingTop=0;spacingBottom=0;spacingLeft=0;spacingRight=0;verticalAlign=middle;html=1;labelBackgroundColor=#ffffff;rounded=0;exitX=1;exitY=0.5;exitDx=0;exitDy=0;exitPerimeter=0;entryX=0;entryY=0.5;entryDx=0;entryDy=0;entryPerimeter=0;" parent="1" source="10" target="11" edge="1">
            <mxGeometry relative="1" as="geometry">
              <mxPoint x="-61" y="102" as="offset" />
              <Array as="points">
                <mxPoint x="453" y="363" />
                <mxPoint x="453" y="363" />
              </Array>
            </mxGeometry>
          </mxCell>
        </UserObject>
        <UserObject label="" tags="Background" id="42">
          <mxCell style="vsdxID=41;edgeStyle=none;startArrow=none;endArrow=block;startSize=5;endSize=5;strokeWidth=2;spacingTop=0;spacingBottom=0;spacingLeft=0;spacingRight=0;verticalAlign=middle;html=1;labelBackgroundColor=#ffffff;rounded=0;exitX=0;exitY=0.5;exitDx=0;exitDy=0;exitPerimeter=0;entryX=1;entryY=0.5;entryDx=0;entryDy=0;entryPerimeter=0;" parent="1" source="9" target="8" edge="1">
            <mxGeometry relative="1" as="geometry">
              <mxPoint x="61" y="101" as="offset" />
              <Array as="points">
                <mxPoint x="453" y="193" />
                <mxPoint x="453" y="193" />
              </Array>
            </mxGeometry>
          </mxCell>
        </UserObject>
        <UserObject label="" tags="Background" id="43">
          <mxCell style="vsdxID=42;edgeStyle=none;startArrow=none;endArrow=block;startSize=5;endSize=5;strokeWidth=2;spacingTop=0;spacingBottom=0;spacingLeft=0;spacingRight=0;verticalAlign=middle;html=1;labelBackgroundColor=#ffffff;rounded=0;exitX=0;exitY=0.5;exitDx=0;exitDy=0;exitPerimeter=0;entryX=1;entryY=0.5;entryDx=0;entryDy=0;entryPerimeter=0;" parent="1" source="5" target="4" edge="1">
            <mxGeometry relative="1" as="geometry">
              <mxPoint x="78" y="102" as="offset" />
              <Array as="points">
                <mxPoint x="274.5" y="108" />
                <mxPoint x="274.5" y="108" />
              </Array>
            </mxGeometry>
          </mxCell>
        </UserObject>
        <UserObject label="" tags="Background" id="44">
          <mxCell style="vsdxID=43;edgeStyle=none;startArrow=none;endArrow=block;startSize=5;endSize=5;strokeWidth=2;spacingTop=0;spacingBottom=0;spacingLeft=0;spacingRight=0;verticalAlign=middle;html=1;labelBackgroundColor=#ffffff;rounded=0;exitX=1;exitY=0.5;exitDx=0;exitDy=0;exitPerimeter=0;entryX=0;entryY=0.5;entryDx=0;entryDy=0;entryPerimeter=0;" parent="1" source="2" target="16" edge="1">
            <mxGeometry relative="1" as="geometry">
              <mxPoint x="-50" y="32" as="offset" />
              <Array as="points">
                <mxPoint x="96.72" y="416" />
                <mxPoint x="96.72" y="277.22" />
              </Array>
            </mxGeometry>
          </mxCell>
        </UserObject>
        <UserObject label="" tags="Background" id="45">
          <mxCell style="vsdxID=44;edgeStyle=none;startArrow=none;endArrow=block;startSize=5;endSize=5;strokeWidth=2;spacingTop=0;spacingBottom=0;spacingLeft=0;spacingRight=0;verticalAlign=middle;html=1;labelBackgroundColor=#ffffff;rounded=0;exitX=0;exitY=0.5;exitDx=0;exitDy=0;exitPerimeter=0;entryX=1;entryY=0.5;entryDx=0;entryDy=0;entryPerimeter=0;" parent="1" source="23" target="13" edge="1">
            <mxGeometry relative="1" as="geometry">
              <mxPoint x="61" y="102" as="offset" />
              <Array as="points">
                <mxPoint x="453" y="533" />
                <mxPoint x="453" y="533" />
              </Array>
            </mxGeometry>
          </mxCell>
        </UserObject>
        <UserObject label="" tags="Background" id="46">
          <mxCell style="vsdxID=45;edgeStyle=none;startArrow=none;endArrow=block;startSize=5;endSize=5;strokeWidth=2;spacingTop=0;spacingBottom=0;spacingLeft=0;spacingRight=0;verticalAlign=middle;html=1;labelBackgroundColor=#ffffff;rounded=0;exitX=1;exitY=0.5;exitDx=0;exitDy=0;exitPerimeter=0;entryX=0;entryY=0.5;entryDx=0;entryDy=0;entryPerimeter=0;" parent="1" source="2" target="18" edge="1">
            <mxGeometry relative="1" as="geometry">
              <mxPoint x="-50" y="117" as="offset" />
              <Array as="points">
                <mxPoint x="96.72" y="416" />
                <mxPoint x="96.72" y="447.22" />
              </Array>
            </mxGeometry>
          </mxCell>
        </UserObject>
        <UserObject label="" tags="Background" id="47">
          <mxCell style="vsdxID=46;edgeStyle=none;startArrow=none;endArrow=block;startSize=5;endSize=5;strokeWidth=2;spacingTop=0;spacingBottom=0;spacingLeft=0;spacingRight=0;verticalAlign=middle;html=1;labelBackgroundColor=#ffffff;rounded=0;exitX=1;exitY=0.5;exitDx=0;exitDy=0;exitPerimeter=0;entryX=0;entryY=0.5;entryDx=0;entryDy=0;entryPerimeter=0;" parent="1" source="2" target="20" edge="1">
            <mxGeometry relative="1" as="geometry">
              <mxPoint x="-50" y="202" as="offset" />
              <Array as="points">
                <mxPoint x="96.72" y="416" />
                <mxPoint x="96.72" y="617.22" />
              </Array>
            </mxGeometry>
          </mxCell>
        </UserObject>
        <UserObject label="" tags="Background" id="48">
          <mxCell style="vsdxID=47;edgeStyle=none;startArrow=none;endArrow=block;startSize=5;endSize=5;strokeWidth=2;spacingTop=0;spacingBottom=0;spacingLeft=0;spacingRight=0;verticalAlign=middle;html=1;labelBackgroundColor=#ffffff;rounded=0;exitX=1;exitY=0.5;exitDx=0;exitDy=0;exitPerimeter=0;entryX=0;entryY=0.5;entryDx=0;entryDy=0;entryPerimeter=0;" parent="1" source="16" target="14" edge="1">
            <mxGeometry relative="1" as="geometry">
              <mxPoint x="-78" y="102" as="offset" />
              <Array as="points">
                <mxPoint x="274.5" y="278" />
                <mxPoint x="274.5" y="278" />
              </Array>
            </mxGeometry>
          </mxCell>
        </UserObject>
        <UserObject label="" tags="Background" id="49">
          <mxCell style="vsdxID=48;edgeStyle=none;startArrow=none;endArrow=block;startSize=5;endSize=5;strokeWidth=2;spacingTop=0;spacingBottom=0;spacingLeft=0;spacingRight=0;verticalAlign=middle;html=1;labelBackgroundColor=#ffffff;rounded=0;exitX=0;exitY=0.5;exitDx=0;exitDy=0;exitPerimeter=0;entryX=1;entryY=0.5;entryDx=0;entryDy=0;entryPerimeter=0;" parent="1" source="14" target="16" edge="1">
            <mxGeometry relative="1" as="geometry">
              <mxPoint x="78" y="102" as="offset" />
              <Array as="points">
                <mxPoint x="274.5" y="278" />
                <mxPoint x="274.5" y="278" />
              </Array>
            </mxGeometry>
          </mxCell>
        </UserObject>
        <UserObject label="" tags="Background" id="50">
          <mxCell style="vsdxID=49;edgeStyle=none;startArrow=none;endArrow=block;startSize=5;endSize=5;strokeWidth=2;spacingTop=0;spacingBottom=0;spacingLeft=0;spacingRight=0;verticalAlign=middle;html=1;labelBackgroundColor=#ffffff;rounded=0;exitX=1;exitY=0.5;exitDx=0;exitDy=0;exitPerimeter=0;entryX=0;entryY=0.5;entryDx=0;entryDy=0;entryPerimeter=0;" parent="1" source="14" target="21" edge="1">
            <mxGeometry relative="1" as="geometry">
              <mxPoint x="-61" y="102" as="offset" />
              <Array as="points">
                <mxPoint x="453" y="278" />
                <mxPoint x="453" y="278" />
              </Array>
            </mxGeometry>
          </mxCell>
        </UserObject>
        <UserObject label="" tags="Background" id="51">
          <mxCell style="vsdxID=50;edgeStyle=none;startArrow=none;endArrow=block;startSize=5;endSize=5;strokeWidth=2;spacingTop=0;spacingBottom=0;spacingLeft=0;spacingRight=0;verticalAlign=middle;html=1;labelBackgroundColor=#ffffff;rounded=0;exitX=0;exitY=0.5;exitDx=0;exitDy=0;exitPerimeter=0;entryX=1;entryY=0.5;entryDx=0;entryDy=0;entryPerimeter=0;" parent="1" source="21" target="14" edge="1">
            <mxGeometry relative="1" as="geometry">
              <mxPoint x="61" y="102" as="offset" />
              <Array as="points">
                <mxPoint x="453" y="278" />
                <mxPoint x="453" y="278" />
              </Array>
            </mxGeometry>
          </mxCell>
        </UserObject>
        <UserObject label="" tags="Background" id="52">
          <mxCell style="vsdxID=51;edgeStyle=none;startArrow=none;endArrow=block;startSize=5;endSize=5;strokeWidth=2;spacingTop=0;spacingBottom=0;spacingLeft=0;spacingRight=0;verticalAlign=middle;html=1;labelBackgroundColor=#ffffff;rounded=0;exitX=1;exitY=0.5;exitDx=0;exitDy=0;exitPerimeter=0;entryX=0;entryY=0.5;entryDx=0;entryDy=0;entryPerimeter=0;" parent="1" source="8" target="9" edge="1">
            <mxGeometry relative="1" as="geometry">
              <mxPoint x="-61" y="102" as="offset" />
              <Array as="points">
                <mxPoint x="453" y="193" />
                <mxPoint x="453" y="193" />
              </Array>
            </mxGeometry>
          </mxCell>
        </UserObject>
        <UserObject label="" tags="Background" id="53">
          <mxCell style="vsdxID=52;edgeStyle=none;startArrow=none;endArrow=block;startSize=5;endSize=5;strokeWidth=2;spacingTop=0;spacingBottom=0;spacingLeft=0;spacingRight=0;verticalAlign=middle;html=1;labelBackgroundColor=#ffffff;rounded=0;exitX=1;exitY=0.5;exitDx=0;exitDy=0;exitPerimeter=0;entryX=0;entryY=0.5;entryDx=0;entryDy=0;entryPerimeter=0;" parent="1" source="12" target="22" edge="1">
            <mxGeometry relative="1" as="geometry">
              <mxPoint x="-61" y="102" as="offset" />
              <Array as="points">
                <mxPoint x="453" y="448" />
                <mxPoint x="453" y="448" />
              </Array>
            </mxGeometry>
          </mxCell>
        </UserObject>
        <UserObject label="" tags="Background" id="54">
          <mxCell style="vsdxID=53;edgeStyle=none;startArrow=none;endArrow=block;startSize=5;endSize=5;strokeWidth=2;spacingTop=0;spacingBottom=0;spacingLeft=0;spacingRight=0;verticalAlign=middle;html=1;labelBackgroundColor=#ffffff;rounded=0;exitX=0;exitY=0.5;exitDx=0;exitDy=0;exitPerimeter=0;entryX=1;entryY=0.5;entryDx=0;entryDy=0;entryPerimeter=0;" parent="1" source="22" target="12" edge="1">
            <mxGeometry relative="1" as="geometry">
              <mxPoint x="61" y="102" as="offset" />
              <Array as="points">
                <mxPoint x="453" y="448" />
                <mxPoint x="453" y="448" />
              </Array>
            </mxGeometry>
          </mxCell>
        </UserObject>
        <UserObject label="" tags="Background" id="55">
          <mxCell style="vsdxID=54;edgeStyle=none;startArrow=none;endArrow=block;startSize=5;endSize=5;strokeWidth=2;spacingTop=0;spacingBottom=0;spacingLeft=0;spacingRight=0;verticalAlign=middle;html=1;labelBackgroundColor=#ffffff;rounded=0;exitX=0;exitY=0.5;exitDx=0;exitDy=0;exitPerimeter=0;entryX=1;entryY=0.5;entryDx=0;entryDy=0;entryPerimeter=0;" parent="1" source="12" target="18" edge="1">
            <mxGeometry relative="1" as="geometry">
              <mxPoint x="78" y="102" as="offset" />
              <Array as="points">
                <mxPoint x="274.5" y="448" />
                <mxPoint x="274.5" y="448" />
              </Array>
            </mxGeometry>
          </mxCell>
        </UserObject>
        <UserObject label="" tags="Background" id="56">
          <mxCell style="vsdxID=55;edgeStyle=none;startArrow=none;endArrow=block;startSize=5;endSize=5;strokeWidth=2;spacingTop=0;spacingBottom=0;spacingLeft=0;spacingRight=0;verticalAlign=middle;html=1;labelBackgroundColor=#ffffff;rounded=0;exitX=1;exitY=0.5;exitDx=0;exitDy=0;exitPerimeter=0;entryX=0;entryY=0.5;entryDx=0;entryDy=0;entryPerimeter=0;" parent="1" source="18" target="12" edge="1">
            <mxGeometry relative="1" as="geometry">
              <mxPoint x="-78" y="102" as="offset" />
              <Array as="points">
                <mxPoint x="274.5" y="448" />
                <mxPoint x="274.5" y="448" />
              </Array>
            </mxGeometry>
          </mxCell>
        </UserObject>
        <UserObject label="" tags="Background" id="57">
          <mxCell style="vsdxID=56;edgeStyle=none;startArrow=none;endArrow=block;startSize=5;endSize=5;strokeWidth=2;spacingTop=0;spacingBottom=0;spacingLeft=0;spacingRight=0;verticalAlign=middle;html=1;labelBackgroundColor=#ffffff;rounded=0;exitX=1;exitY=0.5;exitDx=0;exitDy=0;exitPerimeter=0;entryX=0;entryY=0.5;entryDx=0;entryDy=0;entryPerimeter=0;" parent="1" source="20" target="15" edge="1">
            <mxGeometry relative="1" as="geometry">
              <mxPoint x="-78" y="102" as="offset" />
              <Array as="points">
                <mxPoint x="274.5" y="618" />
                <mxPoint x="274.5" y="618" />
              </Array>
            </mxGeometry>
          </mxCell>
        </UserObject>
        <UserObject label="" tags="Background" id="58">
          <mxCell style="vsdxID=57;edgeStyle=none;startArrow=none;endArrow=block;startSize=5;endSize=5;strokeWidth=2;spacingTop=0;spacingBottom=0;spacingLeft=0;spacingRight=0;verticalAlign=middle;html=1;labelBackgroundColor=#ffffff;rounded=0;exitX=0;exitY=0.5;exitDx=0;exitDy=0;exitPerimeter=0;entryX=1;entryY=0.5;entryDx=0;entryDy=0;entryPerimeter=0;" parent="1" source="15" target="20" edge="1">
            <mxGeometry relative="1" as="geometry">
              <mxPoint x="78" y="102" as="offset" />
              <Array as="points">
                <mxPoint x="274.5" y="618" />
                <mxPoint x="274.5" y="618" />
              </Array>
            </mxGeometry>
          </mxCell>
        </UserObject>
        <UserObject label="" tags="Background" id="59">
          <mxCell style="vsdxID=58;edgeStyle=none;startArrow=none;endArrow=block;startSize=5;endSize=5;strokeWidth=2;spacingTop=0;spacingBottom=0;spacingLeft=0;spacingRight=0;verticalAlign=middle;html=1;labelBackgroundColor=#ffffff;rounded=0;exitX=1;exitY=0.5;exitDx=0;exitDy=0;exitPerimeter=0;entryX=0;entryY=0.5;entryDx=0;entryDy=0;entryPerimeter=0;" parent="1" source="15" target="24" edge="1">
            <mxGeometry relative="1" as="geometry">
              <mxPoint x="-61" y="102" as="offset" />
              <Array as="points">
                <mxPoint x="453" y="618" />
                <mxPoint x="453" y="618" />
              </Array>
            </mxGeometry>
          </mxCell>
        </UserObject>
        <UserObject label="" tags="Background" id="60">
          <mxCell style="vsdxID=59;edgeStyle=none;startArrow=none;endArrow=block;startSize=5;endSize=5;strokeWidth=2;spacingTop=0;spacingBottom=0;spacingLeft=0;spacingRight=0;verticalAlign=middle;html=1;labelBackgroundColor=#ffffff;rounded=0;exitX=0;exitY=0.5;exitDx=0;exitDy=0;exitPerimeter=0;entryX=1;entryY=0.5;entryDx=0;entryDy=0;entryPerimeter=0;" parent="1" source="24" target="15" edge="1">
            <mxGeometry relative="1" as="geometry">
              <mxPoint x="61" y="102" as="offset" />
              <Array as="points">
                <mxPoint x="453" y="618" />
                <mxPoint x="453" y="618" />
              </Array>
            </mxGeometry>
          </mxCell>
        </UserObject>
      </root>
    </mxGraphModel>
  </diagram>
</mxfile>
